<?xml version="1.0" encoding="UTF-8"?>
<svg version="1.1" xmlns="http://www.w3.org/2000/svg" width="1024" height="1024">
<path d="M0 0 C1.088004 -0.01283524 2.176008 -0.02567047 3.29698181 -0.03889465 C4.4720076 -0.04628159 5.64703339 -0.05366852 6.85766602 -0.0612793 C8.06471695 -0.06935104 9.27176788 -0.07742279 10.51539612 -0.08573914 C13.06998254 -0.09957571 15.62458743 -0.11029977 18.17919922 -0.11816406 C22.09255696 -0.13541423 26.00507813 -0.17931019 29.91821289 -0.22338867 C32.39802438 -0.23351223 34.87784305 -0.24202938 37.35766602 -0.2487793 C38.53066757 -0.26628738 39.70366913 -0.28379547 40.91221619 -0.30183411 C42.00337234 -0.29890854 43.0945285 -0.29598297 44.21875 -0.29296875 C45.17788803 -0.29883499 46.13702606 -0.30470123 47.12522888 -0.31074524 C50.41357564 0.31851347 51.57980152 1.62661936 53.67407227 4.17700195 C54.61157227 6.11450195 54.61157227 6.11450195 54.67407227 8.17700195 C53.42670689 11.08752116 52.45228424 12.73461786 49.67529297 14.31323242 C45.35956691 15.55532457 41.24735406 15.42273097 36.77954102 15.37231445 C35.83218582 15.36948456 34.88483063 15.36665466 33.9087677 15.36373901 C30.89290561 15.35257382 27.8773441 15.32747584 24.86157227 15.30200195 C22.81274844 15.29196743 20.76391994 15.2828424 18.71508789 15.2746582 C13.70130078 15.25264644 8.68773743 15.21814167 3.67407227 15.17700195 C3.91963867 16.14186523 3.91963867 16.14186523 4.17016602 17.1262207 C4.82741903 21.10540366 4.78042527 24.96514565 4.73657227 28.98950195 C4.73206055 29.77776367 4.72754883 30.56602539 4.72290039 31.37817383 C4.71118539 33.31114956 4.69325225 35.24408588 4.67407227 37.17700195 C5.92019287 37.16652832 7.16631348 37.15605469 8.45019531 37.14526367 C13.08135089 37.10901451 17.71249396 37.08608351 22.34375 37.06713867 C24.34670115 37.05709232 26.34963768 37.04345286 28.35253906 37.02612305 C31.23449314 37.00181483 34.11625298 36.99050509 36.99829102 36.98168945 C37.89118332 36.97136688 38.78407562 36.96104431 39.70402527 36.95040894 C44.10254222 36.94961839 47.73309359 36.9715045 51.67407227 39.17700195 C53.61157227 41.42700195 53.61157227 41.42700195 54.67407227 44.17700195 C53.91234535 47.70864491 53.23535814 49.61571608 50.67407227 52.17700195 C48.68722534 52.45547485 48.68722534 52.45547485 46.22436523 52.49584961 C45.30356171 52.5157193 44.38275818 52.53558899 43.43405151 52.55606079 C42.43818024 52.567612 41.44230896 52.57916321 40.41625977 52.59106445 C39.39807159 52.6104306 38.37988342 52.62979675 37.33084106 52.64974976 C34.07033738 52.7096555 30.80979859 52.75597494 27.54907227 52.80200195 C25.34202539 52.8401716 23.13499358 52.87922273 20.92797852 52.91918945 C15.51008694 53.01702948 10.09236086 53.09651135 4.67407227 53.17700195 C4.67407227 60.43700195 4.67407227 67.69700195 4.67407227 75.17700195 C7.94829102 75.2027832 11.22250977 75.22856445 14.59594727 75.25512695 C17.76660771 75.29353804 20.93710502 75.3387014 24.10766602 75.38452148 C26.31136285 75.41274905 28.51516127 75.43395465 30.71899414 75.44799805 C33.88684159 75.46940242 37.05346534 75.51604094 40.22094727 75.56762695 C41.20649597 75.56885559 42.19204468 75.57008423 43.2074585 75.5713501 C50.00156735 75.71686701 50.00156735 75.71686701 53.32739258 77.99243164 C54.67407227 80.17700195 54.67407227 80.17700195 54.67407227 83.73950195 C53.55682268 87.58004739 53.0369427 88.24500071 49.67407227 90.17700195 C47.13195801 90.55122375 47.13195801 90.55122375 44.23461914 90.54931641 C43.14669067 90.5555452 42.05876221 90.56177399 40.93786621 90.56819153 C39.76800171 90.55898178 38.59813721 90.54977203 37.39282227 90.5402832 C35.58436829 90.54103096 35.58436829 90.54103096 33.73937988 90.54179382 C31.19073844 90.53945367 28.64209467 90.5297287 26.09350586 90.51318359 C22.18916183 90.48959313 18.28550069 90.49262326 14.38110352 90.49926758 C11.90583902 90.49369076 9.43057741 90.48658087 6.95532227 90.4777832 C5.78545776 90.47869461 4.61559326 90.47960602 3.41027832 90.48054504 C2.32234985 90.47101303 1.23442139 90.46148102 0.11352539 90.45166016 C-0.84259644 90.44705276 -1.79871826 90.44244537 -2.78381348 90.43769836 C-5.45687214 90.16357347 -7.07626482 89.6263588 -9.32592773 88.17700195 C-11.53501862 84.21636652 -11.73676263 80.2739986 -12.01342773 75.80200195 C-12.14297852 73.90321289 -12.14297852 73.90321289 -12.27514648 71.96606445 C-12.32592773 68.17700195 -12.32592773 68.17700195 -11.78295898 64.38793945 C-11.08072181 61.16802555 -11.08072181 61.16802555 -12.32592773 58.17700195 C-12.42183378 55.80613209 -12.4566705 53.43262241 -12.45874023 51.05981445 C-12.45969696 50.36564423 -12.46065369 49.671474 -12.4616394 48.95626831 C-12.46231932 47.48866688 -12.46047818 46.02106243 -12.45629883 44.5534668 C-12.45096407 42.31723187 -12.45624178 40.08119926 -12.46264648 37.8449707 C-12.46198535 36.41658485 -12.46070347 34.98819911 -12.45874023 33.55981445 C-12.4576123 32.26446777 -12.45648438 30.96912109 -12.45532227 29.63452148 C-12.34401576 26.66032756 -11.95388175 24.07020957 -11.32592773 21.17700195 C-11.33420384 17.36999201 -11.45438077 13.57544217 -11.58374023 9.77075195 C-11.3095782 5.9490994 -10.70532961 4.14295406 -8.32592773 1.17700195 C-5.28708449 0.1640542 -3.18168016 0.0326826 0 0 Z " fill="#434554" transform="translate(364.325927734375,491.822998046875)"/>
<path d="M0 0 C1.39145513 0.01604821 2.78291444 0.03173829 4.17437744 0.04708862 C7.07588107 0.08189922 9.97711447 0.12520832 12.87841797 0.17382812 C16.5927744 0.23478617 20.30681303 0.26786595 24.02155685 0.29388618 C26.88884572 0.3181337 29.75566475 0.36033168 32.62265778 0.40761948 C33.99248894 0.42744243 35.362427 0.44094606 36.73238373 0.44794083 C38.64438776 0.45973943 40.55616215 0.49904301 42.46777344 0.53955078 C43.55394958 0.55446564 44.64012573 0.56938049 45.75921631 0.58474731 C49.22434643 1.23924688 50.42073706 2.38258037 52.578125 5.1171875 C53.06396484 7.12719727 53.06396484 7.12719727 53.0390625 9.30859375 C53.03656494 10.15405762 53.03406738 10.99952148 53.03149414 11.87060547 C53.00563232 12.79760254 52.97977051 13.72459961 52.953125 14.6796875 C52.93950928 15.65824707 52.92589355 16.63680664 52.91186523 17.64501953 C51.8381895 71.19816884 51.8381895 71.19816884 45.578125 78.1171875 C41.69642894 80.50592354 38.90025698 81.48983227 34.453125 80.6171875 C30.5038306 79.38255372 28.18473969 77.35570878 25.578125 74.1171875 C24.64300066 71.31181447 24.45629593 69.63553386 24.46459961 66.73754883 C24.46467514 65.85686234 24.46475067 64.97617584 24.46482849 64.06880188 C24.46998978 63.12183945 24.47515106 62.17487701 24.48046875 61.19921875 C24.4818837 60.22683762 24.48329865 59.25445648 24.48475647 58.25260925 C24.49035683 55.14493746 24.50290938 52.03733754 24.515625 48.9296875 C24.52063995 46.82356875 24.52520287 44.71744887 24.52929688 42.61132812 C24.54032638 37.44658686 24.55759125 32.28189937 24.578125 27.1171875 C22.9221228 27.14075317 22.9221228 27.14075317 21.23266602 27.16479492 C17.10090554 27.21947033 12.96917646 27.25367317 8.8371582 27.28198242 C7.05552781 27.29698393 5.27393381 27.31739183 3.49243164 27.34350586 C0.91803965 27.38027259 -1.6558603 27.39700035 -4.23046875 27.41015625 C-5.01522079 27.42564011 -5.79997284 27.44112396 -6.60850525 27.45707703 C-12.23448639 27.45875417 -17.30357894 26.5444799 -22.421875 24.1171875 C-25.82327458 20.63075293 -27.30446506 18.27171856 -27.796875 13.4296875 C-27.72281428 9.36375404 -26.52852049 6.8944707 -24.296875 3.5625 C-17.73014134 -1.4993572 -7.7900838 -0.12020154 0 0 Z " fill="#00AEC7" transform="translate(740.421875,401.8828125)"/>
<path d="M0 0 C1.79428436 0.01762894 1.79428436 0.01762894 3.62481689 0.03561401 C6.13940559 0.06420801 8.65395625 0.09634318 11.16845703 0.13183594 C13.74028524 0.16382466 16.31227118 0.18492449 18.88427734 0.1953125 C22.61103008 0.21051404 26.33614208 0.25783114 30.0625 0.3125 C31.21151794 0.31170441 32.36053589 0.31090881 33.54437256 0.31008911 C42.39733767 0.4990147 42.39733767 0.4990147 45.46582031 3.47607422 C52.06931551 12.93702326 47.7593868 30.77645362 47.14868164 41.82666016 C47.0177446 44.23910566 46.89279499 46.65188321 46.77368164 49.06494141 C46.60053397 52.57017229 46.40971436 56.0740427 46.21484375 59.578125 C46.16470627 60.6552475 46.11456879 61.73237 46.06291199 62.84213257 C45.5182427 71.99219158 45.5182427 71.99219158 42.265625 76.0546875 C41.87375 76.6321875 41.481875 77.2096875 41.078125 77.8046875 C38.05821745 79.88738236 34.83492943 80.1465446 31.265625 80.0546875 C26.76111246 78.85348416 24.8392156 77.84302106 22.08691406 74.06030273 C19.61220308 69.45903995 19.75811805 65.08532809 19.875 59.96484375 C19.88065979 59.02031845 19.88631958 58.07579315 19.89215088 57.10264587 C19.91441429 54.10696194 19.96459169 51.11250555 20.015625 48.1171875 C20.03570298 46.07749132 20.05395147 44.03777626 20.0703125 41.99804688 C20.11424617 37.01645924 20.1832038 32.03578098 20.265625 27.0546875 C19.02474121 27.0453418 17.78385742 27.03599609 16.50537109 27.02636719 C11.88684634 26.98639467 7.26898262 26.92061543 2.65087891 26.84716797 C0.65487175 26.81900047 -1.34124606 26.79776498 -3.33740234 26.78369141 C-6.21248864 26.76220347 -9.08625029 26.71552324 -11.9609375 26.6640625 C-12.84866852 26.66283386 -13.73639954 26.66160522 -14.65103149 26.66033936 C-20.28674587 26.52810932 -23.39248089 25.71636582 -27.734375 22.0546875 C-30.05410233 18.63578704 -30.26225988 15.429223 -30.1953125 11.37890625 C-29.38987038 7.31756673 -26.78900119 4.71363672 -23.734375 2.0546875 C-17.0216841 -1.30165795 -7.31207253 -0.07273992 0 0 Z " fill="#00ADC7" transform="translate(704.734375,438.9453125)"/>
<path d="M0 0 C2.34431542 3.51647313 2.37950136 5.31743055 2.625 9.5 C2.66294678 10.14203369 2.70089355 10.78406738 2.73999023 11.44555664 C3.18515462 19.95617107 3.08252763 28.4813147 3 37 C9.92594477 32.25739319 15.64945946 26.55153971 21.5 20.5625 C26.97101725 14.98551613 32.41343351 9.46833779 38.36279297 4.39794922 C39.81630199 3.15685279 41.22442308 1.86303571 42.625 0.5625 C45.69861159 -1.45961289 47.38925156 -1.61459548 51 -1 C53.375 0.625 53.375 0.625 55 3 C55.31452272 6.14522722 55.42041821 8.15916359 54 11 C53.34 11 52.68 11 52 11 C51.60748047 11.89912109 51.60748047 11.89912109 51.20703125 12.81640625 C49.91779393 15.14871583 48.7484844 16.27370745 46.6875 17.9375 C42.07177261 21.82620806 37.87262905 26.0692291 33.65698242 30.38061523 C30.59114639 33.49398361 27.4839969 36.34337157 24 39 C24.84934636 43.49000586 27.46289301 45.94412991 30.5625 49.125 C36 54.74442379 36 54.74442379 36 57 C36.66 57 37.32 57 38 57 C39.41706502 58.54888502 40.75809496 60.16761534 42.0625 61.8125 C42.8565625 62.81152344 43.650625 63.81054688 44.46875 64.83984375 C44.88253906 65.36175293 45.29632813 65.88366211 45.72265625 66.42138672 C46.98044211 67.97582926 48.28693904 69.49044597 49.59375 71.00390625 C50.81578125 72.42509766 50.81578125 72.42509766 52.0625 73.875 C52.81660156 74.73867188 53.57070313 75.60234375 54.34765625 76.4921875 C56.22598335 79.34298182 56.53128135 80.65735484 56 84 C53.9375 86.875 53.9375 86.875 51 89 C46.64966983 88.95939015 44.58131397 88.48961374 41.2265625 85.6640625 C40.34135763 84.66674725 39.47477463 83.65267137 38.625 82.625 C38.15658691 82.08697754 37.68817383 81.54895508 37.20556641 80.99462891 C35.78182086 79.34686914 34.38677595 77.67893942 33 76 C32.21109375 75.04609375 31.4221875 74.0921875 30.609375 73.109375 C29.13502337 71.30509853 27.66740933 69.49529268 26.20703125 67.6796875 C23.20807921 64.03848202 20.04173216 60.56385717 16.84765625 57.09375 C15 55 15 55 13 52 C8.76495991 52.75568206 6.87589388 54.49925245 4.21289062 57.78027344 C1.90097008 62.01134863 2.46285424 66.43703329 2.75 71.125 C2.83712089 73.06472102 2.91554572 75.00485631 2.984375 76.9453125 C3.03303711 77.79625488 3.08169922 78.64719727 3.13183594 79.52392578 C2.97699927 82.43198782 2.33080873 84.41438189 1 87 C-2 89 -2 89 -5.5 88.8125 C-10.16534486 87.72947352 -10.16534486 87.72947352 -12 85 C-12.30124002 82.28693093 -12.42011771 79.80227768 -12.40405273 77.08789062 C-12.41091599 76.28272507 -12.41777924 75.47755951 -12.42485046 74.647995 C-12.44316681 71.98390113 -12.43927455 69.32039337 -12.43359375 66.65625 C-12.43815292 64.80684212 -12.4434577 62.95743593 -12.44947815 61.10803223 C-12.45841851 57.23096842 -12.45597527 53.35411049 -12.44604492 49.47705078 C-12.43454827 44.50327512 -12.45477254 39.53020865 -12.48396206 34.55652618 C-12.5022876 30.73727896 -12.50203901 26.91820287 -12.49632454 23.09892273 C-12.49617091 21.26485702 -12.50224967 19.43078001 -12.51461601 17.59675598 C-12.52945748 15.03475123 -12.51890078 12.474072 -12.50170898 9.91210938 C-12.51137695 9.15149704 -12.52104492 8.3908847 -12.53100586 7.60722351 C-12.45876231 2.47837566 -12.45876231 2.47837566 -10.09803772 0.01672363 C-6.41392781 -1.76862159 -3.9431795 -0.89039537 0 0 Z " fill="#414352" transform="translate(443,493)"/>
<path d="M0 0 C3.5 0.9375 3.5 0.9375 5.19470215 3.14527893 C6.62939654 6.21429794 6.87759644 8.18086227 6.88476562 11.55053711 C6.89487671 12.65195541 6.90498779 13.75337372 6.91540527 14.88816833 C6.91238403 16.06847122 6.90936279 17.24877411 6.90625 18.46484375 C6.91708618 19.68651749 6.92792236 20.90819122 6.93908691 22.16688538 C6.97335348 26.06964422 6.98894297 29.97211048 7 33.875 C7.01456566 39.00939615 7.04824551 44.14313893 7.09375 49.27734375 C7.09072876 50.45562241 7.08770752 51.63390106 7.08459473 52.84788513 C7.14458969 59.40194602 7.34354754 64.4696109 11.96484375 69.546875 C18.33033972 74.47717957 23.76529036 76.53172156 31.875 75.69140625 C38.29961825 74.46508554 42.6884552 72.2386515 46.8125 67 C52.50342527 55.76002038 49.52694568 37.9527433 49.32861328 25.69580078 C49.28617389 22.91435142 49.26283261 20.13324756 49.2421875 17.3515625 C49.22356659 16.50977448 49.20494568 15.66798645 49.1857605 14.8006897 C49.16248458 9.42096597 49.94082316 5.70062932 52.5 0.9375 C54.3671875 -0.140625 54.3671875 -0.140625 56.375 -0.3125 C57.03242187 -0.40015625 57.68984375 -0.4878125 58.3671875 -0.578125 C60.96614087 0.0501934 62.57822004 1.16857854 64.42190552 3.09298706 C66.85269175 7.25182168 66.16057366 12.43509835 66.09375 17.10546875 C66.09379028 18.29545975 66.09383057 19.48545074 66.09387207 20.71150208 C66.08851377 23.22902708 66.07091818 25.74655149 66.04199219 28.26391602 C66.00033943 32.09378981 66.00090927 35.92189219 66.0078125 39.75195312 C65.99731222 42.20313709 65.98436964 44.65431206 65.96875 47.10546875 C65.96844788 48.80910835 65.96844788 48.80910835 65.96813965 50.54716492 C65.80206155 61.86386301 63.39093709 71.67981197 55.4921875 80.0703125 C49.17290985 86.03729592 42.31358481 90.23241322 33.5 90.9375 C32.72269531 91.00066406 31.94539062 91.06382812 31.14453125 91.12890625 C20.48412048 91.60577888 10.58996134 88.87443462 2.43359375 81.85546875 C-8.00755875 71.4986892 -10.44526064 59.2391221 -10.61474609 44.84863281 C-10.61132305 40.15864233 -10.5159281 35.47254461 -10.38842773 30.78442383 C-10.31182667 27.84919924 -10.26338199 24.91435356 -10.21679688 21.97851562 C-10.17355408 20.09891895 -10.12869171 18.21935868 -10.08203125 16.33984375 C-10.0630352 15.03357277 -10.0630352 15.03357277 -10.0436554 13.70091248 C-9.89224394 8.99797913 -9.57576599 5.73274873 -6.5 1.9375 C-3.5 -0.0625 -3.5 -0.0625 0 0 Z " fill="#424453" transform="translate(562.5,492.0625)"/>
<path d="M0 0 C1.27309593 3.5010138 1.29388514 5.24889903 0 8.75 C-5.57962624 12.78551915 -11.67255354 12.12498711 -18.25 12 C-19.90128906 11.99226563 -19.90128906 11.99226563 -21.5859375 11.984375 C-29.69055451 11.90472274 -29.69055451 11.90472274 -32 10.75 C-31.99111755 11.65788773 -31.98223511 12.56577545 -31.9730835 13.50117493 C-31.89299017 22.0502682 -31.83206241 30.59923578 -31.79275131 39.14861774 C-31.77186166 43.54414668 -31.74351934 47.93936605 -31.69824219 52.3347168 C-31.65483287 56.5752028 -31.63087327 60.81539075 -31.62049103 65.05608177 C-31.61309075 66.67527142 -31.59863983 68.29444445 -31.57707977 69.91350746 C-31.54810975 72.17878299 -31.54404111 74.44282148 -31.54589844 76.70825195 C-31.53701599 77.99842728 -31.52813354 79.2886026 -31.51898193 80.61787415 C-32 83.75 -32 83.75 -33.90118408 85.67668152 C-36.27332882 86.88977828 -37.44457705 87.0456359 -40.0625 86.6875 C-40.73410156 86.61402344 -41.40570313 86.54054688 -42.09765625 86.46484375 C-44.80493501 85.44752956 -45.53815737 84.24241886 -47 81.75 C-47.36076355 78.57354736 -47.36076355 78.57354736 -47.34057617 74.77832031 C-47.34123329 73.73868889 -47.34123329 73.73868889 -47.34190369 72.67805481 C-47.33981897 70.39445512 -47.31650401 68.11159592 -47.29296875 65.828125 C-47.28737164 64.24200847 -47.28310208 62.65588675 -47.28010559 61.06976318 C-47.2686658 56.90050877 -47.23920626 52.73156921 -47.20599365 48.56243896 C-47.175274 44.30599222 -47.16159621 40.04949446 -47.14648438 35.79296875 C-47.11433555 27.44516821 -47.06314989 19.0976233 -47 10.75 C-47.595849 10.81860733 -48.191698 10.88721466 -48.80560303 10.957901 C-54.29569153 11.58083713 -59.72509898 12.05171853 -65.25 12.1875 C-66.02601563 12.23326172 -66.80203125 12.27902344 -67.6015625 12.32617188 C-73.10701597 12.43421405 -73.10701597 12.43421405 -75.66040039 10.4777832 C-77.84153738 7.98795501 -79.01573742 6.42670892 -78.9375 3.0625 C-78 0.75 -78 0.75 -76 -2.25 C-72.76101009 -3.3296633 -70.30461339 -3.42074367 -66.89550781 -3.48706055 C-65.63700012 -3.51346115 -64.37849243 -3.53986176 -63.08184814 -3.56706238 C-61.70561419 -3.59069784 -60.32937284 -3.61390598 -58.953125 -3.63671875 C-57.53928427 -3.66238989 -56.12544559 -3.68817381 -54.71160889 -3.71406555 C-51.74593813 -3.76702925 -48.78023026 -3.81594459 -45.81445312 -3.86254883 C-42.02711093 -3.92276191 -38.2401888 -3.99702929 -34.45317459 -4.07492352 C-31.53121329 -4.13274631 -28.60914923 -4.1809373 -25.68697357 -4.226511 C-24.29157124 -4.24980759 -22.89622147 -4.2765279 -21.50095367 -4.30682945 C-19.5415136 -4.34834545 -17.58177605 -4.37499995 -15.62207031 -4.40112305 C-14.50971008 -4.42031296 -13.39734985 -4.43950287 -12.25128174 -4.45927429 C-7.47095659 -4.15158051 -3.26544912 -3.67363027 0 0 Z " fill="#424453" transform="translate(345,495.25)"/>
<path d="M0 0 C4.87848363 0.89604801 7.02302873 4.09062056 9.77270508 7.98413086 C11.71489559 10.90677998 13.61421665 13.85315504 15.5 16.8125 C16.78996649 18.81796445 18.08032603 20.82317615 19.37109375 22.828125 C19.98839355 23.79298828 20.60569336 24.75785156 21.24169922 25.75195312 C23.44070148 29.14628324 25.71444932 32.48594334 28.01586914 35.81152344 C29.0625 37.5625 29.0625 37.5625 29.0625 39.5625 C29.7225 39.5625 30.3825 39.5625 31.0625 39.5625 C31.2996875 38.88832031 31.536875 38.21414063 31.78125 37.51953125 C33.36480839 33.86479435 35.42273458 30.5951748 37.5625 27.25 C38.46142537 25.83494522 39.3598475 24.41957065 40.2578125 23.00390625 C40.95052246 21.91360107 40.95052246 21.91360107 41.65722656 20.80126953 C43.06535759 18.55794752 44.43932165 16.29690916 45.8046875 14.02734375 C46.24619141 13.3000708 46.68769531 12.57279785 47.14257812 11.82348633 C47.99004877 10.42557519 48.83020861 9.02319924 49.66210938 7.6159668 C53.32167701 1.62806776 53.32167701 1.62806776 57.0625 0.5625 C60.625 0.625 60.625 0.625 64.0625 1.5625 C66.0625 3.75 66.0625 3.75 67.0625 6.5625 C66.72567259 11.56579049 64.90469715 14.82681821 62.0625 18.8125 C61.16655107 20.11751742 60.27214947 21.42359787 59.37890625 22.73046875 C58.86730957 23.47345215 58.35571289 24.21643555 57.82861328 24.98193359 C54.56490256 29.75072297 51.35301542 34.55306843 48.16430664 39.37219238 C47.39177354 40.53520379 46.6151104 41.69548296 45.83422852 42.85290527 C44.72237842 44.50099956 43.62463106 46.15858057 42.52734375 47.81640625 C41.884021 48.77877197 41.24069824 49.7411377 40.57788086 50.73266602 C38.18587605 55.19951438 37.92273752 59.47115896 38.03515625 64.4609375 C38.04740234 65.35296875 38.05964844 66.245 38.07226562 67.1640625 C38.10727488 69.00528987 38.14630341 70.84644542 38.18945312 72.6875 C38.25875771 78.34601587 37.9021874 83.18308403 36.0625 88.5625 C32.54425489 90.90799674 31.20474306 91.14241403 27.0625 90.5625 C23.66181434 87.9052434 22.22862587 86.37569075 21.35546875 82.1015625 C21.32066406 80.80992187 21.28585937 79.51828125 21.25 78.1875 C21.2176123 77.48488037 21.18522461 76.78226074 21.15185547 76.05834961 C21.01520267 72.57292234 21.08975178 69.25897155 21.40234375 65.77734375 C22.28478237 54.47487648 17.93863913 48.2363821 11.47705078 39.48730469 C9.56264474 36.88233796 7.78031043 34.19788315 6 31.5 C5.071875 30.10394531 5.071875 30.10394531 4.125 28.6796875 C3.444375 27.65101563 2.76375 26.62234375 2.0625 25.5625 C1.62421875 24.90797852 1.1859375 24.25345703 0.734375 23.57910156 C-0.69266547 21.43756075 -2.0978614 19.2829082 -3.5 17.125 C-4.18171265 16.11264282 -4.18171265 16.11264282 -4.87719727 15.07983398 C-6.739604 12.17706585 -7.96554031 10.23920623 -7.8203125 6.734375 C-6.17230548 2.67998604 -4.33227921 0.82958538 0 0 Z " fill="#424453" transform="translate(642.9375,491.4375)"/>
<path d="M0 0 C0.89847656 -0.03738281 1.79695312 -0.07476562 2.72265625 -0.11328125 C4.03169922 -0.13068359 4.03169922 -0.13068359 5.3671875 -0.1484375 C6.1597998 -0.16825684 6.95241211 -0.18807617 7.76904297 -0.20849609 C11.65896529 0.75491472 12.85177679 2.04346675 15.125 5.375 C15.85686862 9.72193441 15.77722099 14.01933748 15.71875 18.41796875 C15.71879028 19.69674393 15.71883057 20.9755191 15.71887207 22.29304504 C15.71722089 24.99916936 15.69857508 27.70446329 15.66699219 30.41040039 C15.627513 33.85217549 15.62292491 37.29285444 15.63045502 40.73481274 C15.63429513 44.04599395 15.6133902 47.35684121 15.59375 50.66796875 C15.59354858 51.8912236 15.59334717 53.11447845 15.59313965 54.37480164 C15.4530237 64.62760853 13.86476207 74.2803373 7.125 82.375 C0.08701728 88.91857898 -6.51327794 90.94034522 -16.078125 90.75 C-18.875 90.375 -18.875 90.375 -22.1875 88.3125 C-23.875 85.375 -23.875 85.375 -23.8125 81.6875 C-22.875 78.375 -22.875 78.375 -20.875 76.375 C-18.484375 76.1015625 -18.484375 76.1015625 -15.625 76 C-10.64739428 75.60908856 -7.60796536 74.92131709 -3.875 71.375 C-0.51268812 65.29777163 -0.40555924 59.8251229 -0.36328125 52.97265625 C-0.34533005 51.89495468 -0.32737885 50.81725311 -0.30888367 49.70689392 C-0.25494554 46.28380174 -0.22093724 42.8608477 -0.1875 39.4375 C-0.15431244 37.10870481 -0.11982146 34.7799278 -0.08398438 32.45117188 C0.00077144 26.75923849 0.06919092 21.06728687 0.125 15.375 C-1.01062378 15.40219116 -1.01062378 15.40219116 -2.16918945 15.42993164 C-3.16136475 15.44403076 -4.15354004 15.45812988 -5.17578125 15.47265625 C-6.15973877 15.49078369 -7.14369629 15.50891113 -8.1574707 15.52758789 C-10.875 15.375 -10.875 15.375 -14.0625 13.8125 C-16.54260547 10.47718575 -16.46559604 8.43534781 -15.875 4.375 C-12.21947415 -0.84717979 -5.7121094 0.08937867 0 0 Z " fill="#424453" transform="translate(525.875,491.625)"/>
<path d="M0 0 C1.27309593 3.5010138 1.29388514 5.24889903 0 8.75 C-5.57962624 12.78551915 -11.67255354 12.12498711 -18.25 12 C-19.90128906 11.99226563 -19.90128906 11.99226563 -21.5859375 11.984375 C-29.69055451 11.90472274 -29.69055451 11.90472274 -32 10.75 C-32 34.18 -32 57.61 -32 81.75 C-32.66 81.75 -33.32 81.75 -34 81.75 C-34.02313993 72.52729522 -34.04092354 63.30460039 -34.05181217 54.08187294 C-34.05703738 49.79968874 -34.06412848 45.51752436 -34.07543945 41.23535156 C-34.08628117 37.10512471 -34.09227957 32.97491695 -34.09487724 28.84467697 C-34.09672917 27.2665718 -34.10034535 25.68846771 -34.10573006 24.11037064 C-34.11295752 21.90510016 -34.11399022 19.69990926 -34.11352539 17.49462891 C-34.115746 16.23776276 -34.11796661 14.98089661 -34.12025452 13.6859436 C-34 10.75 -34 10.75 -33 8.75 C-32.16227051 8.75523682 -31.32454102 8.76047363 -30.46142578 8.76586914 C-27.35661064 8.78290014 -24.25181929 8.79544482 -21.14697266 8.80493164 C-19.14093449 8.81244036 -17.13491798 8.8251447 -15.12890625 8.83789062 C-13.87207031 8.84111328 -12.61523438 8.84433594 -11.3203125 8.84765625 C-10.15773926 8.85289307 -8.99516602 8.85812988 -7.79736328 8.86352539 C-5.04497808 8.94356283 -5.04497808 8.94356283 -3 7.75 C-2.95758277 5.41705225 -2.95907063 3.08297433 -3 0.75 C-4.86025921 -1.11025921 -7.96029719 -0.42372428 -10.44750977 -0.45532227 C-11.12065216 -0.46522186 -11.79379456 -0.47512146 -12.48733521 -0.48532104 C-14.72198925 -0.51701838 -16.95666458 -0.54172574 -19.19140625 -0.56640625 C-20.73697984 -0.58696869 -22.28254772 -0.60796496 -23.82810974 -0.62937927 C-27.90350732 -0.68467337 -31.97895625 -0.73405013 -36.05444336 -0.78222656 C-40.2101704 -0.83238817 -44.36582252 -0.88810204 -48.52148438 -0.94335938 C-56.6809263 -1.05103064 -64.84043076 -1.15245552 -73 -1.25 C-73 -1.91 -73 -2.57 -73 -3.25 C-64.77654366 -3.42748277 -56.55296813 -3.59339942 -48.3289938 -3.74477577 C-44.50979736 -3.81543339 -40.69076208 -3.88999153 -36.87182617 -3.97363281 C-33.18261649 -4.05428652 -29.49333934 -4.12447332 -25.80378914 -4.18757248 C-24.40000197 -4.21338788 -22.9962775 -4.24289999 -21.59264946 -4.27626419 C-19.61853366 -4.32254145 -17.64409102 -4.35415809 -15.66967773 -4.38525391 C-14.54826889 -4.40746002 -13.42686005 -4.42966614 -12.27146912 -4.45254517 C-7.48188208 -4.15600937 -3.27180319 -3.68077859 0 0 Z " fill="#333441" transform="translate(345,495.25)"/>
<path d="M0 0 C1.79428436 0.01762894 1.79428436 0.01762894 3.62481689 0.03561401 C6.13940559 0.06420801 8.65395625 0.09634318 11.16845703 0.13183594 C13.74028524 0.16382466 16.31227118 0.18492449 18.88427734 0.1953125 C22.61103008 0.21051404 26.33614208 0.25783114 30.0625 0.3125 C31.21151794 0.31170441 32.36053589 0.31090881 33.54437256 0.31008911 C42.39924744 0.49905546 42.39924744 0.49905546 45.49780273 3.42016602 C47.58912912 6.53679397 47.80180235 8.15414353 47.578125 11.8671875 C47.53300781 12.84300781 47.48789062 13.81882812 47.44140625 14.82421875 C47.38339844 15.56027344 47.32539062 16.29632813 47.265625 17.0546875 C46.935625 17.0546875 46.605625 17.0546875 46.265625 17.0546875 C46.20955078 16.02408203 46.20955078 16.02408203 46.15234375 14.97265625 C46.08660156 14.07160156 46.02085937 13.17054688 45.953125 12.2421875 C45.89511719 11.34886719 45.83710937 10.45554687 45.77734375 9.53515625 C45.17555039 6.61806632 44.59381019 5.85715346 42.265625 4.0546875 C39.94285601 3.54895482 39.94285601 3.54895482 37.296875 3.54296875 C36.26715576 3.5071167 35.23743652 3.47126465 34.17651367 3.43432617 C33.05092041 3.41217041 31.92532715 3.39001465 30.765625 3.3671875 C29.59684814 3.33665283 28.42807129 3.30611816 27.22387695 3.2746582 C23.95648337 3.19874154 20.68932977 3.14019589 17.42144775 3.0904541 C15.16796895 3.05306732 12.91486789 3.00541349 10.66162109 2.95605469 C6.70455732 2.87171062 2.74777137 2.81264515 -1.20996094 2.77059937 C-2.7606697 2.75174607 -4.31131544 2.72659757 -5.86181641 2.69497681 C-8.05532802 2.65301875 -10.24754217 2.63769942 -12.44140625 2.62890625 C-13.7044458 2.61432373 -14.96748535 2.59974121 -16.26879883 2.5847168 C-20.38631451 3.14309775 -22.52606225 4.46165128 -25.734375 7.0546875 C-27.61160723 10.38250828 -28.30311086 13.26311513 -27.734375 17.0546875 C-25.23418668 21.03646889 -23.17744981 22.68108982 -18.734375 24.0546875 C-16.06231435 24.28565654 -13.4824567 24.42572693 -10.80859375 24.46875 C-10.06100296 24.48811615 -9.31341217 24.5074823 -8.54316711 24.5274353 C-6.16951694 24.58692668 -3.79581746 24.63349342 -1.421875 24.6796875 C0.19337982 24.71789539 1.80861487 24.75694875 3.42382812 24.796875 C7.3709321 24.8926028 11.31813139 24.97674517 15.265625 25.0546875 C15.265625 25.3846875 15.265625 25.7146875 15.265625 26.0546875 C10.10617627 26.15389299 4.94728811 26.22631396 -0.21289062 26.27441406 C-1.96656979 26.2944746 -3.72018253 26.32173001 -5.47363281 26.35644531 C-8.00081818 26.40521052 -10.52711591 26.42771142 -13.0546875 26.4453125 C-13.83304962 26.46595764 -14.61141174 26.48660278 -15.4133606 26.50787354 C-20.64916478 26.51001028 -23.56613631 25.49778879 -27.734375 22.0546875 C-30.05410233 18.63578704 -30.26225988 15.429223 -30.1953125 11.37890625 C-29.38987038 7.31756673 -26.78900119 4.71363672 -23.734375 2.0546875 C-17.0216841 -1.30165795 -7.31207253 -0.07273992 0 0 Z " fill="#0798AE" transform="translate(704.734375,438.9453125)"/>
<path d="M0 0 C5.34067786 4.20436342 9.43774767 8.82184529 13.671875 14.12890625 C16.60735244 17.74900007 19.71454141 21.18759285 22.8515625 24.6328125 C25.5039512 27.5552626 28.09849436 30.52535115 30.6875 33.50390625 C32.51668727 35.79428586 32.51668727 35.79428586 35.4375 36.1875 C38.16734675 36.26839983 38.16734675 36.26839983 40 34 C40.5116813 31.62256337 40.5116813 31.62256337 40 29 C38.25733853 26.46985271 38.25733853 26.46985271 35.875 24.125 C35.05902344 23.26132812 34.24304688 22.39765625 33.40234375 21.5078125 C32.60957031 20.68023438 31.81679688 19.85265625 31 19 C25 12.38181818 25 12.38181818 25 10 C29.32659027 11.57516525 31.74365937 14.9208741 34.5625 18.375 C35.04396484 18.9525 35.52542969 19.53 36.02148438 20.125 C42.87296498 28.38070428 42.87296498 28.38070428 43.5 31.4375 C42.74631954 35.30011236 41.14926852 36.72180575 38 39 C33.64966983 38.95939015 31.58131397 38.48961374 28.2265625 35.6640625 C27.34135763 34.66674725 26.47477463 33.65267137 25.625 32.625 C25.15658691 32.08697754 24.68817383 31.54895508 24.20556641 30.99462891 C22.78182086 29.34686914 21.38677595 27.67893942 20 26 C19.21109375 25.04609375 18.4221875 24.0921875 17.609375 23.109375 C16.13374305 21.30353171 14.66610819 19.49112048 13.20703125 17.671875 C10.23363676 14.07222574 7.05934732 10.67634867 3.84765625 7.2890625 C1.94657348 4.93380985 0.96287287 2.85333007 0 0 Z " fill="#31313D" transform="translate(456,543)"/>
<path d="M0 0 C7.18981902 -0.10136217 14.37945402 -0.1714496 21.56982422 -0.21972656 C24.01618333 -0.23985052 26.46249429 -0.2671526 28.90869141 -0.30175781 C32.42362341 -0.35023963 35.93791984 -0.37296128 39.453125 -0.390625 C40.5480426 -0.41127014 41.64296021 -0.43191528 42.77105713 -0.45318604 C43.79181335 -0.45348816 44.81256958 -0.45379028 45.86425781 -0.45410156 C46.76138489 -0.46298401 47.65851196 -0.47186646 48.58282471 -0.48101807 C51.78325745 0.15586829 52.97821455 1.49689811 55 4 C55.4699707 6.2956543 55.4699707 6.2956543 55.42578125 8.82421875 C55.41820801 9.76297852 55.41063477 10.70173828 55.40283203 11.66894531 C55.35811768 13.16312988 55.35811768 13.16312988 55.3125 14.6875 C55.29558105 15.70811523 55.27866211 16.72873047 55.26123047 17.78027344 C55.20016158 20.85487565 55.10608162 23.92664946 55 27 C54.97244629 27.8883252 54.94489258 28.77665039 54.91650391 29.69189453 C54.83695205 32.04580182 54.73816402 34.39748917 54.625 36.75 C54.579198 37.79353638 54.579198 37.79353638 54.5324707 38.8581543 C54.31678759 42.38957609 54.0150383 43.97744255 52 47 C52 32.81 52 18.62 52 4 C46.49078265 2.13943771 46.49078265 2.13943771 41.09619141 1.68115234 C40.17569 1.66128265 39.2551886 1.64141296 38.30679321 1.62094116 C37.33156708 1.60938995 36.35634094 1.59783875 35.3515625 1.5859375 C33.83276993 1.55688828 33.83276993 1.55688828 32.28329468 1.5272522 C29.06394758 1.46769277 25.84456426 1.42116552 22.625 1.375 C20.43618272 1.33679849 18.24738012 1.2977455 16.05859375 1.2578125 C10.70585995 1.16201077 5.353037 1.07689467 0 1 C0 0.67 0 0.34 0 0 Z " fill="#089BB1" transform="translate(738,403)"/>
<path d="M0 0 C6.4777286 -0.10140493 12.95525261 -0.17146717 19.43359375 -0.21972656 C21.6374476 -0.23984419 23.84124807 -0.26714172 26.04492188 -0.30175781 C29.21237356 -0.35026833 32.37911968 -0.37296736 35.546875 -0.390625 C36.53242371 -0.41127014 37.51797241 -0.43191528 38.53338623 -0.45318604 C45.32788454 -0.45541574 45.32788454 -0.45541574 48.65332031 1.79785156 C50 4 50 4 50 7.625 C49 11 49 11 47.421875 12.234375 C43.98644367 13.32041458 40.77804459 12.95846357 37.25 12.625 C36.55261719 12.56828125 35.85523438 12.5115625 35.13671875 12.453125 C33.42360688 12.31232128 31.71165389 12.15754028 30 12 C30 11.67 30 11.34 30 11 C37.92 10.505 37.92 10.505 46 10 C46.33 7.69 46.66 5.38 47 3 C31.82 2.67 16.64 2.34 1 2 C0.67 1.34 0.34 0.68 0 0 Z " fill="#2B2D39" transform="translate(369,568)"/>
<path d="M0 0 C0.33 0 0.66 0 1 0 C0.99111755 0.56518845 0.98223511 1.13037689 0.9730835 1.71269226 C0.88451103 7.60124588 0.82422487 13.48960992 0.78027344 19.37866211 C0.76017233 21.57568042 0.73288694 23.77264532 0.69824219 25.96948242 C0.64965907 29.12952866 0.62701595 32.28886687 0.609375 35.44921875 C0.58872986 36.42960617 0.56808472 37.40999359 0.54681396 38.42008972 C0.54537173 42.81459814 0.56953607 45.29530805 2.90161133 49.11303711 C5.09350189 51.08408099 6.0435549 51.68016013 8.9375 51.875 C9.62714844 51.92269531 10.31679688 51.97039062 11.02734375 52.01953125 C13.45314069 51.99551346 15.66585768 51.65647753 18 51 C16 54 16 54 13.375 54.875 C9.02814611 55.03599459 5.81075564 54.06556445 2 52 C-2.60383651 47.24765264 -2.19203558 42.01887694 -2.1875 35.8125 C-2.18814453 34.90153564 -2.18878906 33.99057129 -2.18945312 33.05200195 C-2.1071618 21.99036419 -1.08022895 11.00195947 0 0 Z " fill="#099BB2" transform="translate(767,428)"/>
<path d="M0 0 C0.05063235 7.20822151 0.08570496 14.4163973 0.10986328 21.62475586 C0.11993245 24.07789829 0.13358861 26.53102869 0.15087891 28.98413086 C0.17508679 32.50637783 0.18647388 36.02846639 0.1953125 39.55078125 C0.20563507 40.65086014 0.21595764 41.75093903 0.22659302 42.88435364 C0.22674408 43.90518539 0.22689514 44.92601715 0.22705078 45.9777832 C0.231492 46.87713089 0.23593323 47.77647858 0.24050903 48.70307922 C0 51 0 51 -2 54 C-2 37.17 -2 20.34 -2 3 C-5.63 3 -9.26 3 -13 3 C-13.33 2.34 -13.66 1.68 -14 1 C-12.04175306 0.83232136 -10.08339945 0.66588795 -8.125 0.5 C-6.48917969 0.36078125 -6.48917969 0.36078125 -4.8203125 0.21875 C-3.21670436 0.09437042 -1.60842449 0 0 0 Z " fill="#343642" transform="translate(528,504)"/>
<path d="M0 0 C3 1 3 1 4.375 3.75 C5 7 5 7 3.6875 9.8125 C2 12 2 12 1 13 C-0.47354348 13.09304018 -1.95150591 13.11746265 -3.42797852 13.11352539 C-4.36887833 13.11344986 -5.30977814 13.11337433 -6.27919006 13.11329651 C-7.30209641 13.10813522 -8.32500275 13.10297394 -9.37890625 13.09765625 C-10.42070541 13.0962413 -11.46250458 13.09482635 -12.53587341 13.09336853 C-15.87811094 13.0877508 -19.22028257 13.0751953 -22.5625 13.0625 C-24.82226466 13.05748728 -27.08203037 13.05292398 -29.34179688 13.04882812 C-34.89455391 13.03777561 -40.44727225 13.02102024 -46 13 C-45.67 12.34 -45.34 11.68 -45 11 C-29.82 11 -14.64 11 1 11 C1 8.03 1 5.06 1 2 C0.34 1.67 -0.32 1.34 -1 1 C-0.67 0.67 -0.34 0.34 0 0 Z " fill="#2D2D3B" transform="translate(414,493)"/>
<path d="M0 0 C0.79719955 0.00222061 1.59439911 0.00444122 2.41575623 0.00672913 C3.31661453 0.00680466 4.21747284 0.00688019 5.14562988 0.00695801 C6.12478867 0.01211929 7.10394745 0.01728058 8.11277771 0.02259827 C9.11018478 0.02401321 10.10759186 0.02542816 11.13522339 0.02688599 C14.3348027 0.03250337 17.53431315 0.04505881 20.73387146 0.05775452 C22.89728191 0.06276728 25.06069345 0.06733057 27.22410583 0.07142639 C32.53988471 0.08247845 37.85562317 0.09923348 43.17137146 0.12025452 C43.17137146 0.45025452 43.17137146 0.78025452 43.17137146 1.12025452 C28.98137146 1.45025452 14.79137146 1.78025452 0.17137146 2.12025452 C0.17137146 8.39025452 0.17137146 14.66025452 0.17137146 21.12025452 C-0.15862854 22.77025452 -0.48862854 24.42025452 -0.82862854 26.12025452 C-1.48862854 25.79025452 -2.14862854 25.46025452 -2.82862854 25.12025452 C-2.85749838 21.14110293 -2.8753826 17.16197798 -2.89112854 13.18275452 C-2.89950745 12.04644592 -2.90788635 10.91013733 -2.91651917 9.73939514 C-2.91974182 8.6598053 -2.92296448 7.58021545 -2.92628479 6.46791077 C-2.93152161 5.46767883 -2.93675842 4.4674469 -2.94215393 3.43690491 C-2.78269903 0.18299623 -2.78269903 0.18299623 0 0 Z " fill="#23242F" transform="translate(368.82862854003906,542.8797454833984)"/>
<path d="M0 0 C0 0.66 0 1.32 0 2 C-15.18 2 -30.36 2 -46 2 C-45.67 1.34 -45.34 0.68 -45 0 C-39.3951235 -0.16797489 -33.79010111 -0.32849605 -28.18481445 -0.48217773 C-26.27883186 -0.53547721 -24.37290462 -0.59079669 -22.46704102 -0.64819336 C-19.72424248 -0.73044156 -16.98132557 -0.80537262 -14.23828125 -0.87890625 C-12.96456413 -0.91945885 -12.96456413 -0.91945885 -11.66511536 -0.96083069 C-7.61776485 -1.0624441 -3.95155865 -1.04321148 0 0 Z " fill="#272734" transform="translate(413,530)"/>
<path d="M0 0 C1.32 0.33 2.64 0.66 4 1 C2 3 0 5 -2 7 C-2.38270052 11.9751068 -2.17088582 15.06372795 1 19 C4.97569284 21.92527528 7.94123754 22.40399202 12.83203125 22.51171875 C14.12431641 22.54716797 15.41660156 22.58261719 16.74804688 22.61914062 C18.10285934 22.64223681 19.45767718 22.66501935 20.8125 22.6875 C22.18688117 22.72069761 23.56123171 22.75518953 24.93554688 22.79101562 C28.29028234 22.87341264 31.64475904 22.94259395 35 23 C35 23.33 35 23.66 35 24 C30.67671196 24.0744013 26.35376745 24.12871968 22.0300293 24.16479492 C20.56056218 24.17984066 19.09113966 24.20028238 17.62182617 24.22631836 C15.5042823 24.26288955 13.38733435 24.27976801 11.26953125 24.29296875 C9.99698486 24.3086792 8.72443848 24.32438965 7.41333008 24.34057617 C2.37141694 23.8375028 -0.05484235 22.09842646 -3.3125 18.3125 C-5.29797542 14.41508529 -5.98647185 11.24753584 -5 7 C-3.55696909 4.35860432 -1.94339653 2.33207584 0 0 Z " fill="#0595AD" transform="translate(718,404)"/>
<path d="M0 0 C2.31 0 4.62 0 7 0 C7 0.66 7 1.32 7 2 C4.69 2.66 2.38 3.32 0 4 C0 13.24 0 22.48 0 32 C-0.99 32.495 -0.99 32.495 -2 33 C-2.85466742 27.1241615 -3.16263475 21.30491603 -3.25 15.375 C-3.27126953 14.65900635 -3.29253906 13.9430127 -3.31445312 13.20532227 C-3.34751435 8.08024204 -2.2882216 4.58848648 0 0 Z " fill="#31323D" transform="translate(615,493)"/>
<path d="M0 0 C0.66 0 1.32 0 2 0 C3.33984375 1.80859375 3.33984375 1.80859375 4.9375 4.4375 C5.54980469 5.4275 6.16210938 6.4175 6.79296875 7.4375 C7.13763184 7.99695313 7.48229492 8.55640625 7.83740234 9.1328125 C10.09746959 12.76258871 12.42753489 16.34746658 14.75 19.9375 C15.22171631 20.670896 15.69343262 21.40429199 16.17944336 22.15991211 C16.6306958 22.85866455 17.08194824 23.55741699 17.546875 24.27734375 C17.97033203 24.93331543 18.39378906 25.58928711 18.83007812 26.26513672 C20.05810702 28.14298931 20.05810702 28.14298931 21.890625 30.31640625 C22.25671875 30.87199219 22.6228125 31.42757812 23 32 C22.67 32.99 22.34 33.98 22 35 C15.85591181 26.89941445 10.44778367 18.46981979 5.13867188 9.81005859 C4.03525922 8.05604885 2.8792579 6.35033736 1.703125 4.64453125 C0 2 0 2 0 0 Z " fill="#2A2C38" transform="translate(636,501)"/>
<path d="M0 0 C0.66 0 1.32 0 2 0 C0.56071432 3.92924991 -1.29435867 7.32247113 -3.5 10.875 C-3.84095703 11.42438232 -4.18191406 11.97376465 -4.53320312 12.53979492 C-8.863997 19.46306089 -13.4318759 26.23206205 -18 33 C-18.33 32.01 -18.66 31.02 -19 30 C-17.62923054 27.44867799 -16.2137592 25.09795271 -14.625 22.6875 C-14.17253906 21.98560547 -13.72007812 21.28371094 -13.25390625 20.56054688 C-12.31143302 19.09958211 -11.36507675 17.64111568 -10.41503906 16.18505859 C-9.05258788 14.08120454 -7.72059474 11.96138426 -6.3984375 9.83203125 C-5.59907595 8.55461389 -4.799602 7.27726686 -4 6 C-3.62697754 5.39502686 -3.25395508 4.79005371 -2.86962891 4.16674805 C-1.96637063 2.74260387 -0.98988251 1.36535518 0 0 Z " fill="#2D323F" transform="translate(695,496)"/>
<path d="M0 0 C1.06320672 2.09273722 2.08446849 4.18886774 3.04296875 6.33203125 C7.34940259 15.66508753 12.40811854 20.69965642 21.765625 24.95703125 C24 26 24 26 27 28 C18.59343795 27.84432293 13.08162533 23.9618292 7.13671875 18.19140625 C3.03863795 13.62555444 0.11680086 9.41388452 -0.1875 3.125 C-0.125625 2.09375 -0.06375 1.0625 0 0 Z " fill="#2E2E3A" transform="translate(555,553)"/>
<path d="M0 0 C0.33 0 0.66 0 1 0 C2.32915021 7.97490128 2.08801359 15.94186719 2 24 C3.27310312 23.06558465 4.543388 22.12732889 5.8125 21.1875 C6.52019531 20.66542969 7.22789062 20.14335938 7.95703125 19.60546875 C9.78531393 18.16871123 11.39896688 16.68184237 13 15 C13.66 15.33 14.32 15.66 15 16 C12.88094537 18.17277714 10.75527122 20.33826908 8.625 22.5 C8.02171875 23.12003906 7.4184375 23.74007812 6.796875 24.37890625 C6.21679688 24.96542969 5.63671875 25.55195312 5.0390625 26.15625 C4.23782959 26.97319336 4.23782959 26.97319336 3.42041016 27.80664062 C2 29 2 29 0 29 C0 19.43 0 9.86 0 0 Z " fill="#2A2B38" transform="translate(444,506)"/>
<path d="M0 0 C5.37404188 4.73750488 8.94604178 10.64586461 12.8125 16.625 C13.50537109 17.67429687 14.19824219 18.72359375 14.91210938 19.8046875 C15.56630859 20.81015625 16.22050781 21.815625 16.89453125 22.8515625 C17.49112549 23.76760254 18.08771973 24.68364258 18.70239258 25.62744141 C20 28 20 28 20 31 C20.66 31.33 21.32 31.66 22 32 C21.01 32 20.02 32 19 32 C17.31701911 29.63349798 15.8362765 27.31160528 14.375 24.8125 C13.49251276 23.34458905 12.60704123 21.87846851 11.71875 20.4140625 C11.27015625 19.67446289 10.8215625 18.93486328 10.359375 18.17285156 C7.64540888 13.83479508 4.62011082 9.7149279 1.6171875 5.57421875 C0 3 0 3 0 0 Z " fill="#2E303D" transform="translate(652,501)"/>
<path d="M0 0 C0 0.99 0 1.98 0 3 C-8.38714519 11.36536039 -18.21874422 13.05929807 -29.609375 13.23046875 C-32 13 -32 13 -34 11 C-33.10539063 10.96261719 -32.21078125 10.92523437 -31.2890625 10.88671875 C-19.58857007 10.25055125 -8.67990361 8.67990361 0 0 Z " fill="#393A46" transform="translate(617,570)"/>
<path d="M0 0 C2.375 1.625 2.375 1.625 4 4 C4.31452272 7.14522722 4.42041821 9.15916359 3 12 C2.34 12 1.68 12 1 12 C1 9.36 1 6.72 1 4 C-2.17519799 3.47080033 -3.92186708 3.24767678 -7 4 C-10.6756096 6.67080414 -13.84351976 9.7400286 -17 13 C-17 10 -17 10 -15.1015625 7.7734375 C-13.87566406 6.58621094 -13.87566406 6.58621094 -12.625 5.375 C-11.40683594 4.18003906 -11.40683594 4.18003906 -10.1640625 2.9609375 C-6.75127746 -0.13151392 -4.58094305 -0.4580943 0 0 Z " fill="#343541" transform="translate(494,492)"/>
<path d="M0 0 C0.89267578 0.00322266 1.78535156 0.00644531 2.70507812 0.00976562 C4.09823242 0.02233398 4.09823242 0.02233398 5.51953125 0.03515625 C6.45990234 0.03966797 7.40027344 0.04417969 8.36914062 0.04882812 C10.69016837 0.06060999 13.01106769 0.07706067 15.33203125 0.09765625 C15.33203125 1.08765625 15.33203125 2.07765625 15.33203125 3.09765625 C7.74203125 3.09765625 0.15203125 3.09765625 -7.66796875 3.09765625 C-7.66796875 2.43765625 -7.66796875 1.77765625 -7.66796875 1.09765625 C-4.78531726 0.13677242 -2.99134604 -0.01905316 0 0 Z " fill="#3B3D4A" transform="translate(520.66796875,491.90234375)"/>
<path d="M0 0 C0.66 0 1.32 0 2 0 C2 10.56 2 21.12 2 32 C1.34 32 0.68 32 0 32 C-0.93363823 21.19852381 -0.93363823 10.80147619 0 0 Z " fill="#3B3D4B" transform="translate(665,545)"/>
<path d="M0 0 C0.33 0 0.66 0 1 0 C1.226875 0.886875 1.45375 1.77375 1.6875 2.6875 C3.19110199 6.48230501 4.91505286 8.36650854 8 11 C11.60484534 12.20161511 14.97289857 12.23017136 18.73046875 12.31640625 C19.48088943 12.33718735 20.23131012 12.35796844 21.00447083 12.37937927 C23.39872184 12.44469926 25.79308139 12.50367792 28.1875 12.5625 C29.81186013 12.60570193 31.43620933 12.64931676 33.06054688 12.69335938 C37.04025371 12.80036263 41.02006958 12.90167937 45 13 C45 13.33 45 13.66 45 14 C39.84055127 14.09920549 34.68166311 14.17162646 29.52148438 14.21972656 C27.76780521 14.2397871 26.01419247 14.26704251 24.26074219 14.30175781 C21.73355682 14.35052302 19.20725909 14.37302392 16.6796875 14.390625 C15.90132538 14.41127014 15.12296326 14.43191528 14.3210144 14.45318604 C9.08250702 14.45532388 6.17570753 13.43580005 2 10 C-0.35735328 6.78542734 -0.17742689 3.90339153 0 0 Z " fill="#0B90A6" transform="translate(675,451)"/>
<path d="M0 0 C0.33 0 0.66 0 1 0 C1.01458252 1.27641357 1.02916504 2.55282715 1.04418945 3.86791992 C1.1022354 8.61120379 1.17946828 13.35401607 1.26245117 18.09692383 C1.29567083 20.14827816 1.32371197 22.19972325 1.34643555 24.2512207 C1.3800357 27.20302949 1.43235476 30.15400886 1.48828125 33.10546875 C1.49467117 34.02023483 1.5010611 34.93500092 1.50764465 35.87748718 C1.62017391 40.76948974 1.91225095 43.98947537 5 48 C5.66 48.99 6.32 49.98 7 51 C3.34683329 49.75023244 2.21934164 49.32901247 0 46 C-0.24050903 43.89289856 -0.24050903 43.89289856 -0.22705078 41.43676758 C-0.22689972 40.51603958 -0.22674866 39.59531158 -0.22659302 38.64668274 C-0.21627045 37.65597275 -0.20594788 36.66526276 -0.1953125 35.64453125 C-0.1924826 34.62775803 -0.18965271 33.6109848 -0.18673706 32.56340027 C-0.17553383 29.31298092 -0.15042886 26.06283619 -0.125 22.8125 C-0.11497039 20.61003002 -0.10584451 18.40755572 -0.09765625 16.20507812 C-0.07559405 10.80329157 -0.04211508 5.40166541 0 0 Z " fill="#048FA6" transform="translate(726,466)"/>
<path d="M0 0 C0 0.66 0 1.32 0 2 C-1.269553 2.64834654 -2.54069706 3.29357815 -3.8125 3.9375 C-4.52019531 4.29714844 -5.22789062 4.65679688 -5.95703125 5.02734375 C-9.86960913 6.89011983 -12.89874552 7.10861564 -17.1875 7.0625 C-18.81751953 7.04896484 -18.81751953 7.04896484 -20.48046875 7.03515625 C-21.31191406 7.02355469 -22.14335937 7.01195312 -23 7 C-23 6.34 -23 5.68 -23 5 C-22.154375 4.97421875 -21.30875 4.9484375 -20.4375 4.921875 C-13.37244657 4.56862233 -6.17507248 0 0 0 Z " fill="#33333E" transform="translate(530,575)"/>
<path d="M0 0 C1.63001953 0.01353516 1.63001953 0.01353516 3.29296875 0.02734375 C4.12441406 0.03894531 4.95585938 0.05054688 5.8125 0.0625 C5.8125 0.7225 5.8125 1.3825 5.8125 2.0625 C7.7925 2.0625 9.7725 2.0625 11.8125 2.0625 C11.8125 2.3925 11.8125 2.7225 11.8125 3.0625 C4.8825 3.0625 -2.0475 3.0625 -9.1875 3.0625 C-9.1875 2.4025 -9.1875 1.7425 -9.1875 1.0625 C-5.90230525 -0.03256492 -3.45086585 -0.03710608 0 0 Z " fill="#06A2BA" transform="translate(732.1875,401.9375)"/>
<path d="M0 0 C0.66 0 1.32 0 2 0 C0.78993645 2.86015021 -0.37961022 4.37961022 -2.625 6.625 C-5.62355458 10.08824286 -5.34996279 13.10207207 -5.109375 17.51953125 C-4.96452118 20.8046089 -5.43804261 23.76874502 -6 27 C-6.33 27 -6.66 27 -7 27 C-7.13530844 23.93601549 -7.2342407 20.87802874 -7.3125 17.8125 C-7.35439453 16.94818359 -7.39628906 16.08386719 -7.43945312 15.19335938 C-7.56405398 8.68919483 -7.56405398 8.68919483 -4.60546875 5.07421875 C-3.74566406 4.38972656 -2.88585937 3.70523438 -2 3 C-1.34 2.01 -0.68 1.02 0 0 Z " fill="#22222D" transform="translate(451,543)"/>
<path d="M0 0 C0.66 0.99 1.32 1.98 2 3 C-1 3 -1 3 -2.9375 2.4375 C-5.33132049 1.77217972 -5.33132049 1.77217972 -9 3 C-9.66 5.64 -10.32 8.28 -11 11 C-11.33 11 -11.66 11 -12 11 C-12.60411899 3.75057208 -12.60411899 3.75057208 -9.9375 0.4375 C-6.12229269 -1.42951635 -4.04523674 -1.14487832 0 0 Z " fill="#333541" transform="translate(566,493)"/>
<path d="M0 0 C0.33 0.99 0.66 1.98 1 3 C-1.79704729 7.03103874 -4.02651509 9.95903804 -9 11 C-11.73112046 10.85223415 -14.29338148 10.4587489 -17 10 C-14.56485177 8.59510679 -12.89470786 7.98879871 -10.0625 7.6875 C-6.10529938 6.79914884 -4.63662939 5.00282792 -2 2 C-1.34 1.34 -0.68 0.68 0 0 Z " fill="#31313E" transform="translate(525,559)"/>
<path d="M0 0 C0.33 0 0.66 0 1 0 C2.10087193 7.01805857 2.09733092 13.90565767 2 21 C1.34 21.33 0.68 21.66 0 22 C-1.14364008 14.50280391 -0.75667376 7.53181418 0 0 Z " fill="#2E303D" transform="translate(613,504)"/>
<path d="M0 0 C2.875 2.5 2.875 2.5 5 5 C4.67 5.99 4.34 6.98 4 8 C2.9790625 6.7315625 2.9790625 6.7315625 1.9375 5.4375 C-0.85416667 2.5625 -0.85416667 2.5625 -4.8125 3.1875 C-6.3903125 3.5896875 -6.3903125 3.5896875 -8 4 C-8 4.66 -8 5.32 -8 6 C-8.66 6 -9.32 6 -10 6 C-7.94044528 0.26266899 -6.20076242 -0.72950146 0 0 Z " fill="#363A46" transform="translate(646,492)"/>
<path d="M0 0 C1.22616639 4.1839418 1.15159263 7.79534785 0 12 C-2.24360369 14.56411851 -3.35919663 14.95630886 -6.75 15.1875 C-7.4925 15.125625 -8.235 15.06375 -9 15 C-9.33 14.34 -9.66 13.68 -10 13 C-8.906875 12.896875 -7.81375 12.79375 -6.6875 12.6875 C-4.69368649 12.27042719 -4.69368649 12.27042719 -3 11 C-1.43738371 7.43831253 -0.67089279 3.82089416 0 0 Z " fill="#363741" transform="translate(445,567)"/>
<path d="M0 0 C0.66 0 1.32 0 2 0 C2.21914063 0.51949219 2.43828125 1.03898438 2.6640625 1.57421875 C5.04177863 6.80326114 7.48061685 9.50774938 12 13 C12 13.66 12 14.32 12 15 C7.25898062 14.0894731 4.02499166 11.73347655 1 8 C0.13110001 5.18617851 0.05147628 2.9856243 0 0 Z " fill="#31323F" transform="translate(567,552)"/>
<path d="M0 0 C5.93409367 4.69782416 10.42451008 9.98649896 15 16 C14.67 16.66 14.34 17.32 14 18 C12.22688737 16.08539961 10.45646638 14.16842507 8.6875 12.25 C8.18798828 11.71117187 7.68847656 11.17234375 7.17382812 10.6171875 C0 2.82574503 0 2.82574503 0 0 Z " fill="#2F303D" transform="translate(465,534)"/>
<path d="M0 0 C2 2 2 2 2.4375 4.3125 C1.79034314 8.28789213 0.22083405 9.67003494 -3 12 C-6.8125 11.8125 -6.8125 11.8125 -10 11 C-10.33 10.01 -10.66 9.02 -11 8 C-7.97265625 8.48828125 -7.97265625 8.48828125 -4.9453125 8.9765625 C-3.98238281 8.98816406 -3.98238281 8.98816406 -3 9 C-0.23776722 6.23776722 -0.42143709 3.79293383 0 0 Z " fill="#363843" transform="translate(497,570)"/>
<path d="M0 0 C0.33 0 0.66 0 1 0 C1.16311941 8.71782637 0.65655389 17.31238511 0 26 C-0.33 26 -0.66 26 -1 26 C-1.33 20.39 -1.66 14.78 -2 9 C-1.34 9 -0.68 9 0 9 C0 6.03 0 3.06 0 0 Z " fill="#0CB4CB" transform="translate(752,447)"/>
<path d="M0 0 C0.33 0 0.66 0 1 0 C1.02917228 3.22914752 1.04685663 6.45826083 1.0625 9.6875 C1.07087891 10.59951172 1.07925781 11.51152344 1.08789062 12.45117188 C1.09111328 13.33740234 1.09433594 14.22363281 1.09765625 15.13671875 C1.10289307 15.94842529 1.10812988 16.76013184 1.11352539 17.59643555 C0.9929791 20.14864673 0.559949 22.51026137 0 25 C-0.33 25 -0.66 25 -1 25 C-1.19466332 23.20909747 -1.38051213 21.41723495 -1.5625 19.625 C-1.66691406 18.62726562 -1.77132812 17.62953125 -1.87890625 16.6015625 C-2 14 -2 14 -1 12 C-0.77141886 9.9625237 -0.58975722 7.91959697 -0.4375 5.875 C-0.35371094 4.77929688 -0.26992188 3.68359375 -0.18359375 2.5546875 C-0.12300781 1.71164062 -0.06242188 0.86859375 0 0 Z " fill="#2E2F3B" transform="translate(614,528)"/>
<path d="M0 0 C1.9375 0.625 1.9375 0.625 4 2 C4.95319686 5.13193253 5.24990303 7.15941709 4.3125 10.3125 C2.68894113 12.39993284 1.57547398 12.65660347 -1 13 C-1 12.34 -1 11.68 -1 11 C-0.34 10.67 0.32 10.34 1 10 C1.11320856 4.91696314 1.11320856 4.91696314 0 0 Z " fill="#393A46" transform="translate(341,493)"/>
<path d="M0 0 C0.66 0.66 1.32 1.32 2 2 C-3.0493065 11.04577888 -3.0493065 11.04577888 -8 13 C-8.99 12.67 -9.98 12.34 -11 12 C-9.9275 11.319375 -8.855 10.63875 -7.75 9.9375 C-3.81429746 7.15935703 -2.10328772 4.29070694 0 0 Z " fill="#31323F" transform="translate(611,555)"/>
<path d="M0 0 C3 1 3 1 4.375 3.75 C5 7 5 7 3.625 9.875 C3.08875 10.57625 2.5525 11.2775 2 12 C1.01 11.67 0.02 11.34 -1 11 C-0.34 11 0.32 11 1 11 C1 8.03 1 5.06 1 2 C0.34 1.67 -0.32 1.34 -1 1 C-0.67 0.67 -0.34 0.34 0 0 Z " fill="#353642" transform="translate(414,493)"/>
<path d="M0 0 C0.804375 0.495 0.804375 0.495 1.625 1 C4.6161026 2.25941162 6.77729983 2.26855835 10 2 C12.30230766 1.10168984 12.30230766 1.10168984 14 0 C13.4375 1.9375 13.4375 1.9375 12 4 C8.01967863 5.12650605 5.87132954 5.38931746 2.0625 3.6875 C1.381875 3.130625 0.70125 2.57375 0 2 C0 1.34 0 0.68 0 0 Z " fill="#353540" transform="translate(299,577)"/>
<path d="M0 0 C0.66 0 1.32 0 2 0 C3.69140625 2.3359375 3.69140625 2.3359375 5.5625 5.375 C6.18253906 6.37273437 6.80257812 7.37046875 7.44140625 8.3984375 C8.34335784 9.90395068 9.21513229 11.43026458 10 13 C9.34 13.66 8.68 14.32 8 15 C6.66121428 12.8782637 5.32884524 10.75294812 4 8.625 C3.6184375 8.02171875 3.236875 7.4184375 2.84375 6.796875 C0 2.2265625 0 2.2265625 0 0 Z " fill="#303340" transform="translate(636,501)"/>
<path d="M0 0 C1.32 0.33 2.64 0.66 4 1 C3.21625 1.763125 2.4325 2.52625 1.625 3.3125 C-2.15112288 7.17853056 -3.29582301 9.71867258 -4 15 C-4.33 15 -4.66 15 -5 15 C-5.60709557 8.07911053 -4.44071801 5.32886161 0 0 Z " fill="#0CA2B8" transform="translate(718,404)"/>
<path d="M0 0 C0.33 0 0.66 0 1 0 C1.78287497 6.10642479 -0.89174849 10.00459579 -4 15 C-4.66 15 -5.32 15 -6 15 C-4 10 -2 5 0 0 Z " fill="#2A2A36" transform="translate(538,558)"/>
<path d="M0 0 C1.32 0.33 2.64 0.66 4 1 C4.79953138 4.28696233 5.09658936 5.71023192 4 9 C3.01 8.67 2.02 8.34 1 8 C1.020625 7.05125 1.04125 6.1025 1.0625 5.125 C1.22551826 2.09333717 1.22551826 2.09333717 0 0 Z " fill="#333440" transform="translate(414,532)"/>
<path d="M0 0 C-1.44253657 3.36591866 -3.33264727 5.51047079 -6 8 C-6.99 7.67 -7.98 7.34 -9 7 C-7.88121617 5.82737096 -6.75476949 4.66204862 -5.625 3.5 C-4.68527344 2.52546875 -4.68527344 2.52546875 -3.7265625 1.53125 C-2 0 -2 0 0 0 Z " fill="#33333F" transform="translate(481,517)"/>
<path d="M0 0 C0.66 0 1.32 0 2 0 C2 4.62 2 9.24 2 14 C1.67 14 1.34 14 1 14 C0.855625 12.7625 0.71125 11.525 0.5625 10.25 C0.28388159 7.96452146 -0.03818221 5.85490762 -0.625 3.625 C-1 2 -1 2 0 0 Z " fill="#383A48" transform="translate(613,498)"/>
<path d="M0 0 C1.13199353 0.9080162 2.25532363 1.82683826 3.375 2.75 C4.00148438 3.26046875 4.62796875 3.7709375 5.2734375 4.296875 C7.08312318 6.08199481 8.00117455 7.67949644 9 10 C4.71095765 8.4114658 2.67654474 5.56872632 0 2 C0 1.34 0 0.68 0 0 Z " fill="#2B2C38" transform="translate(456,543)"/>
<path d="M0 0 C0.33 0.99 0.66 1.98 1 3 C-1.64 5.31 -4.28 7.62 -7 10 C-7.66 9.67 -8.32 9.34 -9 9 C-6.03 6.03 -3.06 3.06 0 0 Z " fill="#2F2F3B" transform="translate(493,504)"/>
<path d="M0 0 C2.3431213 0.25561323 4.67843403 0.59270772 7 1 C7.33 1.66 7.66 2.32 8 3 C5.04335481 4.4783226 2.25770263 4.06032783 -1 4 C-0.34 3.34 0.32 2.68 1 2 C0.67 1.34 0.34 0.68 0 0 Z " fill="#445F6F" transform="translate(700,492)"/>
<path d="M0 0 C0.66 0.66 1.32 1.32 2 2 C-1.69308976 3.23102992 -4.88050712 2.87175152 -8.6875 2.5625 C-9.7403418 2.48418945 -9.7403418 2.48418945 -10.81445312 2.40429688 C-12.54338054 2.27492135 -14.27175355 2.13817469 -16 2 C-16 1.67 -16 1.34 -16 1 C-13.37549914 0.77880061 -10.75129514 0.57253331 -8.125 0.375 C-7.37863281 0.31054688 -6.63226563 0.24609375 -5.86328125 0.1796875 C-3.9129953 0.03912635 -1.95530533 0.01240151 0 0 Z " fill="#3B3D4A" transform="translate(415,578)"/>
<path d="M0 0 C0.75 1.5625 0.75 1.5625 1 4 C-0.13084437 6.50286409 -1.52139516 8.67007722 -3 11 C-3.66 11 -4.32 11 -5 11 C-3.55049545 7.2089881 -1.84827434 3.6125362 0 0 Z " fill="#2C2E3A" transform="translate(624,558)"/>
<path d="M0 0 C4.455 0.99 4.455 0.99 9 2 C9 2.66 9 3.32 9 4 C3.375 4.25 3.375 4.25 0 2 C0 1.34 0 0.68 0 0 Z " fill="#393A46" transform="translate(667,578)"/>
<path d="M0 0 C-1.5830577 4.2742558 -4.50568404 6.26531794 -8 9 C-7.53918323 4.85264908 -4.48412936 0 0 0 Z " fill="#323440" transform="translate(453,543)"/>
<path d="M0 0 C1.2380014 3.57644848 0.74926071 6.33694766 0 10 C-0.66 10 -1.32 10 -2 10 C-1.54177532 6.53058454 -1.10868317 3.32604951 0 0 Z " fill="#3B3C49" transform="translate(445,567)"/>
<path d="M0 0 C0.99 0.33 1.98 0.66 3 1 C-0.465 3.97 -0.465 3.97 -4 7 C-3.04065919 3.16263678 -2.76390737 2.40339772 0 0 Z " fill="#31323E" transform="translate(472,506)"/>
<path d="M0 0 C0 0.99 0 1.98 0 3 C-2.3125 5.25 -2.3125 5.25 -5 7 C-5.99 6.67 -6.98 6.34 -8 6 C-5.36 4.02 -2.72 2.04 0 0 Z " fill="#2D2F3B" transform="translate(617,570)"/>
<path d="M0 0 C2.12038635 2.61514317 4.13091744 5.19637616 6 8 C3.625 7.3125 3.625 7.3125 1 6 C-0.3125 3.375 -0.3125 3.375 -1 1 C-0.67 0.67 -0.34 0.34 0 0 Z " fill="#0C95AB" transform="translate(727,509)"/>
<path d="M0 0 C1.65 0 3.3 0 5 0 C5.33 0.99 5.66 1.98 6 3 C4.02 3 2.04 3 0 3 C0 2.01 0 1.02 0 0 Z " fill="#373844" transform="translate(435,492)"/>
<path d="M0 0 C3 1 3 1 3 1 Z " fill="#5D616E" transform="translate(435,583)"/>
<path d="" fill="#5E616E" transform="translate(0,0)"/>
<path d="" fill="#5D5F6D" transform="translate(0,0)"/>
<path d="M0 0 C0.66 0.66 1.32 1.32 2 2 C1.34 2 0.68 2 0 2 C0 1.34 0 0.68 0 0 Z " fill="#5D626F" transform="translate(554,562)"/>
<path d="" fill="#595D6C" transform="translate(0,0)"/>
<path d="M0 0 C2 1 2 1 2 1 Z " fill="#5E6170" transform="translate(582,583)"/>
<path d="M0 0 C2 1 2 1 2 1 Z " fill="#5C5F6F" transform="translate(555,565)"/>
<path d="" fill="#23AEC2" transform="translate(0,0)"/>
<path d="M0 0 C2 1 2 1 2 1 Z " fill="#10B9D0" transform="translate(763,430)"/>
<path d="" fill="#60605F" transform="translate(0,0)"/>
<path d="" fill="#5E616E" transform="translate(0,0)"/>
<path d="" fill="#5F6070" transform="translate(0,0)"/>
<path d="" fill="#60636F" transform="translate(0,0)"/>
<path d="" fill="#5B5F6C" transform="translate(0,0)"/>
<path d="" fill="#606271" transform="translate(0,0)"/>
<path d="" fill="#62606F" transform="translate(0,0)"/>
<path d="" fill="#61636F" transform="translate(0,0)"/>
<path d="" fill="#5F6171" transform="translate(0,0)"/>
<path d="" fill="#606773" transform="translate(0,0)"/>
<path d="" fill="#5D6470" transform="translate(0,0)"/>
<path d="" fill="#606370" transform="translate(0,0)"/>
<path d="" fill="#5E636E" transform="translate(0,0)"/>
<path d="" fill="#606673" transform="translate(0,0)"/>
<path d="" fill="#5A5F6D" transform="translate(0,0)"/>
<path d="" fill="#5F606D" transform="translate(0,0)"/>
<path d="" fill="#606371" transform="translate(0,0)"/>
<path d="" fill="#5E616E" transform="translate(0,0)"/>
<path d="" fill="#5F6270" transform="translate(0,0)"/>
<path d="" fill="#5D5F6D" transform="translate(0,0)"/>
<path d="" fill="#5E606F" transform="translate(0,0)"/>
<path d="" fill="#5C626D" transform="translate(0,0)"/>
<path d="" fill="#5D5F6C" transform="translate(0,0)"/>
<path d="" fill="#5A5D6B" transform="translate(0,0)"/>
<path d="" fill="#5C5E6B" transform="translate(0,0)"/>
<path d="" fill="#5F6270" transform="translate(0,0)"/>
<path d="" fill="#5B5D6C" transform="translate(0,0)"/>
<path d="" fill="#5E606D" transform="translate(0,0)"/>
<path d="" fill="#5B5E6C" transform="translate(0,0)"/>
<path d="" fill="#5B5F6C" transform="translate(0,0)"/>
<path d="" fill="#5D6271" transform="translate(0,0)"/>
<path d="" fill="#5A606D" transform="translate(0,0)"/>
<path d="" fill="#5A5E6B" transform="translate(0,0)"/>
<path d="" fill="#5D5F6E" transform="translate(0,0)"/>
<path d="" fill="#5F5F6E" transform="translate(0,0)"/>
<path d="" fill="#5B596B" transform="translate(0,0)"/>
<path d="" fill="#585866" transform="translate(0,0)"/>
<path d="" fill="#5A5B6A" transform="translate(0,0)"/>
<path d="" fill="#5A5D6B" transform="translate(0,0)"/>
<path d="" fill="#585E6C" transform="translate(0,0)"/>
<path d="" fill="#5B5E6E" transform="translate(0,0)"/>
<path d="" fill="#585F6E" transform="translate(0,0)"/>
<path d="" fill="#5E6170" transform="translate(0,0)"/>
<path d="" fill="#596C7A" transform="translate(0,0)"/>
<path d="" fill="#575969" transform="translate(0,0)"/>
<path d="" fill="#585C6B" transform="translate(0,0)"/>
<path d="" fill="#585B69" transform="translate(0,0)"/>
<path d="" fill="#596978" transform="translate(0,0)"/>
<path d="" fill="#5D606E" transform="translate(0,0)"/>
<path d="" fill="#5E5F6F" transform="translate(0,0)"/>
<path d="" fill="#60606F" transform="translate(0,0)"/>
<path d="" fill="#616274" transform="translate(0,0)"/>
<path d="" fill="#5F5E6E" transform="translate(0,0)"/>
<path d="" fill="#5D616F" transform="translate(0,0)"/>
<path d="" fill="#5D616F" transform="translate(0,0)"/>
<path d="" fill="#5C5D6F" transform="translate(0,0)"/>
<path d="" fill="#576374" transform="translate(0,0)"/>
<path d="" fill="#5E6073" transform="translate(0,0)"/>
<path d="" fill="#30A9BB" transform="translate(0,0)"/>
<path d="" fill="#5A6070" transform="translate(0,0)"/>
<path d="" fill="#596876" transform="translate(0,0)"/>
<path d="" fill="#5C6372" transform="translate(0,0)"/>
<path d="" fill="#5D6070" transform="translate(0,0)"/>
<path d="" fill="#5D6879" transform="translate(0,0)"/>
<path d="" fill="#5D606F" transform="translate(0,0)"/>
<path d="" fill="#5D6271" transform="translate(0,0)"/>
<path d="" fill="#626676" transform="translate(0,0)"/>
<path d="" fill="#528495" transform="translate(0,0)"/>
<path d="" fill="#29A9BB" transform="translate(0,0)"/>
<path d="" fill="#626673" transform="translate(0,0)"/>
<path d="" fill="#1AB1C5" transform="translate(0,0)"/>
<path d="" fill="#5C6474" transform="translate(0,0)"/>
<path d="" fill="#5F6271" transform="translate(0,0)"/>
<path d="" fill="#4A8D9C" transform="translate(0,0)"/>
<path d="" fill="#5F6472" transform="translate(0,0)"/>
<path d="" fill="#616A76" transform="translate(0,0)"/>
<path d="" fill="#626978" transform="translate(0,0)"/>
<path d="" fill="#606573" transform="translate(0,0)"/>
<path d="" fill="#5C7785" transform="translate(0,0)"/>
<path d="" fill="#5F7381" transform="translate(0,0)"/>
<path d="" fill="#616474" transform="translate(0,0)"/>
<path d="" fill="#616774" transform="translate(0,0)"/>
<path d="" fill="#616675" transform="translate(0,0)"/>
<path d="" fill="#606574" transform="translate(0,0)"/>
<path d="" fill="#656977" transform="translate(0,0)"/>
<path d="" fill="#1BB8CC" transform="translate(0,0)"/>
<path d="" fill="#27ADC3" transform="translate(0,0)"/>
<path d="" fill="#2BAEC4" transform="translate(0,0)"/>
<path d="" fill="#2BAFC3" transform="translate(0,0)"/>
<path d="" fill="#1BB4C9" transform="translate(0,0)"/>
<path d="" fill="#1CB5CA" transform="translate(0,0)"/>
</svg>
